<svg xmlns="http://www.w3.org/2000/svg" width="280" height="130" viewBox="0 0 280 130">
  <path fill="#FFF" fill-rule="evenodd" d="M16.7542619,99.9489583 L28.959479,63.0516968 L21.7229999,62.0623502 L14.4884443,61.064304 L16.3993864,99.9011101 L11.5696172,60.670402 L2.49576782,58.1610286 L11.9067009,58.1909942 L27.0283407,21.6992343 L14.8236045,58.5969791 L22.0596027,59.5858423 L29.29512,60.5848552 L27.3832162,21.7475658 L32.2129853,60.9782739 L41.2868348,63.4876473 L31.8754208,63.4576817 L16.7542619,99.9489583 Z M27.5149722,19.4498846 L2,58.0928812 L16.2681113,102.198791 L41.7821217,63.5557947 L27.5149722,19.4498846 Z M96.5421058,30.3365631 L92.9380516,30.3433295 L92.9346856,18.7278114 L89.0868349,18.7278114 L90.0706768,15.3102885 L100.015847,15.3069053 L100.015847,18.7249115 L96.5387397,18.7249115 L96.5421058,30.3365631 Z M100.767432,30.3351132 L103.985355,30.3351132 L103.985355,23.6107465 C103.982951,22.3507434 104.620573,21.6649189 105.632785,21.6649189 C106.457462,21.6649189 106.837823,22.1781998 106.837823,23.2487433 L106.843594,30.33173 L110.087483,30.33173 L110.084117,22.2405475 C110.084117,20.0661116 108.741072,18.7848426 106.758962,18.7848426 C105.542383,18.7848426 104.51286,19.2792742 103.684817,20.2014399 L103.681932,15 L100.764066,15 L100.767432,30.3351132 Z M116.87628,21.6378532 C117.327328,21.6378532 117.735579,21.7591654 118.118344,21.9756906 L114.191152,24.5164795 L114.193556,24.3444192 C114.193556,22.7494785 115.338967,21.6378532 116.87628,21.6378532 L116.87628,21.6378532 Z M116.66374,30.4491756 C118.376086,30.4462757 120.037461,29.8174824 121.679602,28.6004943 L119.930229,26.1167367 C118.739136,26.9306398 117.709612,27.3607904 116.813768,27.3607904 C116.118924,27.3607904 115.512077,27.1428152 114.961972,26.6754492 L122.087372,22.0578543 C120.698645,19.8761687 119.008418,18.8196413 116.810883,18.8196413 C113.22414,18.8215746 110.861669,21.27585 110.861669,24.6334418 C110.864554,28.0296989 113.320312,30.4491756 116.66374,30.4491756 L116.66374,30.4491756 Z M111.712313,33.2664209 L111.712313,99.8556784 L92.877944,99.8556784 L92.877944,89.4015671 C95.1524171,85.3035361 96.3377398,80.4974482 96.3377398,75.1456971 C96.3377398,69.2637492 95.0105631,64.7660164 92.877944,61.254247 L92.877944,33.2664209 L111.712313,33.2664209 Z M203.37935,57.8937552 C197.629212,56.1108049 194.104019,54.852735 194.104019,51.5908396 C194.104019,48.8702574 197.730674,47.3627968 200.228748,47.3627968 C204.843091,47.3627968 207.462822,48.9219721 210.964934,51.9886081 L211.580436,52.5212216 L221.107257,40.3672902 L220.520606,39.8854248 C214.747388,35.1213852 207.184885,32.3974198 199.778181,32.3974198 C188.237033,32.3974198 175.97844,39.5437208 175.97844,52.7923616 C175.97844,67.0752972 186.939189,70.6025327 194.946007,73.1737705 C200.713936,75.0345346 204.250189,76.3346529 204.250189,79.5404837 C204.250189,83.2233468 199.191049,84.4200357 196.741062,84.4200357 C192.068053,84.4200357 188.154806,82.7496978 185.440345,79.5917152 L184.826285,78.878825 L178.545758,86.9274758 L168.640019,33.2504715 L153.084161,33.2504715 L146.85172,60.3533471 L140.040322,26.0171737 L124.824434,26.0133072 L112.492269,99.8556784 L130.424542,99.8556784 L134.039656,76.2230071 L138.251038,99.8556784 L154.896046,99.8556784 L159.348339,76.0349974 L162.370551,99.8556784 L181.086628,99.8556784 L180.291284,96.3675915 L180.445159,96.4357389 C185.350423,99.0176096 191.167401,100.403275 197.381569,100.403275 C212.564278,100.403275 222.369036,91.7756122 222.369036,78.4288584 C222.369036,63.7897194 211.392419,60.3847626 203.37935,57.8937552 L203.37935,57.8937552 Z M70.6525428,51.0248773 C63.719968,48.8702574 57.7308427,47.0109432 57.7308427,41.3793526 C57.7308427,36.5321828 63.3958676,34.2755833 67.2360245,34.2755833 C73.1626379,34.2755833 76.7580365,36.2547598 80.6140619,39.4451245 L81.2555306,39.9695216 L91.0097985,27.5309174 L90.3486145,27.0282695 C83.6002095,21.9442751 74.9658671,19.0231171 66.6517782,19.0231171 C53.0063821,19.0231171 38.4968785,27.3864061 38.4968785,42.8916463 C38.4968785,59.5558768 50.5169641,63.4219164 61.1165858,66.837506 C68.0611822,69.0689731 74.0584822,70.9959514 74.0584822,76.5419952 C74.0584822,82.3079475 67.1735126,84.2508753 62.8289323,84.2508753 C52.5673559,84.2508753 45.2452835,76.8387509 42.9626358,74.6556154 L33.3213702,88.6234294 C41.7917389,95.6489015 48.8267372,99.015193 55.6439054,100.311445 C58.2323808,100.756095 60.9064495,100.993886 63.6435111,100.993886 C71.9455784,100.993886 79.3806531,98.7044212 84.578281,94.5546755 C90.2808131,90.0115111 93.2953315,83.2963274 93.2953315,75.1456971 C93.2953315,58.0450329 81.2694756,54.3143216 70.6525428,51.0248773 L70.6525428,51.0248773 Z M222.440685,34.078874 L223.37644,35.5660354 L223.438952,35.5694186 L224.368457,34.0841905 L224.368457,36.3717221 L225.09071,36.3702721 L225.09071,32.9827147 L224.304022,32.9812648 L223.418756,34.4133282 L222.531087,32.9798149 L221.719874,32.9798149 L221.71795,36.3702721 L222.44357,36.3702721 L222.440685,34.078874 Z M219.233822,36.3702721 L219.999353,36.3702721 L220.001757,33.665156 L221.00868,33.6612895 L221.011085,32.9802982 L218.229784,32.9802982 L218.229784,33.6612895 L219.230937,33.6627395 L219.233822,36.3702721 Z M268.321087,79.6690456 L268.321087,19.634511 L249.874293,19.634511 L217.420975,60.9903568 C221.904524,64.4305955 225.411926,69.7335317 225.411926,78.4288584 C225.411926,85.8878644 222.700831,92.2125293 217.571966,96.7237949 C216.205358,97.9233836 214.687761,98.9663782 213.043697,99.8556784 L248.642326,99.8556784 L248.642326,115.024048 L268.321087,115.024048 L268.321087,99.8556784 L277.857044,99.8556784 L277.857044,79.6690456 L268.321087,79.6690456 Z M248.670216,79.6690456 L228.792379,79.6690456 L248.670216,51.6440043 L248.670216,79.6690456 Z"/>
</svg>
